<svg height="65" width="205"  viewBox="0 0 217 80" version="1.1" xmlns:xlink="http://www.w3.org/1999/xlink" xmlns="http://www.w3.org/2000/svg">
  <defs>
    <path d="M0 0L217 0L217 80L0 80L0 0Z" id="path_1" />
      <use xlink:href="#path_1" transform="translate(0, 5.3600006)" />
  </defs>
  <g id="Text" clip-path="url(#clip_1)" transform="translate(0 -5.3600006)">
    <g transform="translate(4.8499985, 0)" id="RPD">
      <path d="M18.9 72.45L3.15 72.45L3.15 28.35L18.9 28.35L18.9 72.45ZM0 22.05L-12.06 9.45L34.65 9.45L53.55 28.35L44.1 37.8L25.2 37.8L34.65 28.35L28.35 22.05L0 22.05ZM25.2 44.1L25.2 56.7L37.8 56.7L53.55 72.45L72.45 72.45L44.1 44.1L25.2 44.1ZM88.48 72.45L72.73 72.45L72.73 28.35L88.48 28.35L88.48 72.45ZM69.58 22.05L57.34 9.45L104.23 9.45L123.13 28.35L113.68 37.8L94.78 37.8L104.23 28.35L97.93 22.05L69.58 22.05ZM142.4 72.45L142.4 28.35L126.65 28.35L126.65 72.45L142.4 72.45ZM148.7 59.85L161.3 59.85L180.2 40.95L161.3 22.05L123.5 22.05L111.17 9.45L167.6 9.45L199.1 40.95L167.6 72.45L148.7 72.45L148.7 59.85Z" />
    </g>
  </g>
</svg>